<?xml version="1.0" standalone="no"?>
<!DOCTYPE svg PUBLIC "-//W3C//DTD SVG 20010904//EN"
 "http://www.w3.org/TR/2001/REC-SVG-20010904/DTD/svg10.dtd">
<svg version="1.0" xmlns="http://www.w3.org/2000/svg"
 width="1180.000000pt" height="1180.000000pt" viewBox="0 0 1180.000000 1180.000000"
 preserveAspectRatio="xMidYMid meet">
<metadata>
Created by potrace 1.11, written by Peter Selinger 2001-2013
</metadata>
<g transform="translate(0.000000,1180.000000) scale(0.100000,-0.100000)"
fill="#000000" stroke="none">
<path d="M3156 11613 c-13 -7 -27 -25 -31 -40 -5 -15 -9 -2316 -10 -5113 -1
-5429 -4 -5130 46 -5145 12 -4 742 -7 1623 -7 l1602 0 120 48 c65 27 121 51
124 54 3 3 37 21 75 40 307 148 579 414 707 690 41 89 88 232 103 315 2 17 7
41 10 55 3 14 8 54 13 90 9 85 9 2757 0 2835 -12 89 -16 114 -43 230 -2 11
-15 52 -29 90 -112 325 -342 605 -699 848 l-98 67 28 12 c15 7 40 20 54 30 14
9 28 15 31 12 3 -2 11 2 18 11 7 8 17 15 22 15 15 0 158 99 223 154 72 61 158
148 194 196 14 19 28 37 31 40 13 12 80 120 112 180 30 57 94 218 103 260 3
14 19 83 31 135 26 109 29 254 29 1455 l0 1235 -53 135 c-192 485 -429 777
-770 948 -80 40 -245 97 -307 106 -16 3 -40 7 -53 10 -74 17 -285 19 -1665 20
-1178 1 -1523 -2 -1541 -11z m2689 -1332 c22 -6 49 -16 60 -21 11 -5 37 -16
58 -26 45 -20 129 -101 153 -147 28 -56 55 -149 62 -211 8 -83 7 -2088 -1
-2151 -20 -154 -63 -251 -142 -317 -34 -29 -101 -68 -125 -73 -8 -2 -35 -8
-60 -14 -29 -6 -281 -10 -702 -9 l-657 0 0 1495 1 1494 656 -4 c486 -2 667 -6
697 -16z m-58 -4306 c166 -32 278 -126 341 -285 21 -54 31 -92 37 -140 2 -14
4 -25 5 -25 10 0 13 -302 13 -1295 1 -1096 0 -1180 -17 -1255 -25 -111 -40
-141 -102 -213 -45 -52 -99 -85 -179 -108 -54 -16 -124 -17 -723 -18 -581 -1
-663 1 -667 14 -6 20 -5 3321 1 3331 2 4 278 8 612 8 473 0 623 -3 679 -14z"/>
<path d="M5120 10090 c-51 -4 -65 -8 -65 -21 0 -27 529 -582 720 -756 64 -58
72 -63 115 -63 36 0 51 5 67 23 27 29 25 54 -6 87 -14 15 -105 109 -201 210
-239 250 -450 461 -491 492 -42 31 -57 34 -139 28z"/>
<path d="M5568 10092 c-58 -5 -50 -24 65 -155 58 -65 217 -229 259 -266 15
-13 41 -25 57 -26 l31 -3 0 107 c0 88 -3 111 -17 127 -10 10 -34 39 -54 64
-41 50 -95 107 -126 132 -21 16 -132 27 -215 20z"/>
<path d="M4671 10064 c-12 -15 -21 -41 -21 -60 0 -34 8 -47 65 -107 17 -18 62
-67 100 -110 39 -44 81 -91 95 -106 38 -42 167 -184 190 -212 12 -13 40 -44
63 -69 23 -25 62 -68 87 -96 186 -207 203 -224 228 -219 28 5 51 31 52 60 4
65 -3 150 -13 160 -7 7 -66 70 -132 140 -215 229 -322 340 -477 491 -169 165
-196 180 -237 128z"/>
<path d="M4693 9640 c-32 -13 -40 -36 -42 -117 l-2 -72 73 -77 c40 -43 82 -88
93 -100 163 -175 499 -518 626 -640 15 -14 42 -27 60 -30 l34 -6 -2 106 -1
106 -79 81 c-43 45 -98 103 -123 129 -25 26 -127 132 -226 236 -100 104 -226
235 -280 292 -53 56 -100 102 -103 101 -3 0 -16 -4 -28 -9z"/>
<path d="M4649 9096 c-4 -119 0 -135 33 -169 18 -19 103 -107 188 -197 241
-254 545 -557 588 -585 60 -39 72 -28 72 64 l0 76 -93 97 c-50 53 -153 161
-227 239 -174 183 -412 421 -466 466 -24 19 -55 36 -69 37 -22 3 -25 -1 -26
-28z"/>
<path d="M4649 8628 c0 -7 -1 -53 0 -101 l0 -88 53 -56 c130 -135 201 -210
318 -333 366 -387 429 -450 448 -450 38 0 56 37 60 119 2 77 2 79 -33 117
-255 279 -753 780 -789 794 -36 13 -56 13 -57 -2z"/>
<path d="M4671 8134 c-20 -26 -23 -39 -23 -119 0 -59 1 -62 30 -93 15 -16 54
-60 87 -98 87 -98 306 -318 336 -338 33 -21 150 -17 198 8 l33 18 -33 36 c-19
19 -43 45 -54 57 -11 12 -61 67 -112 121 -50 54 -104 113 -119 129 -15 17 -69
75 -119 130 -51 55 -108 117 -127 138 -41 44 -69 47 -97 11z"/>
<path d="M4649 7623 c-7 -131 11 -153 122 -153 33 0 38 3 36 23 -3 26 -32 83
-56 107 -38 40 -100 54 -102 23z"/>
<path d="M4892 5756 c2 -15 59 -83 148 -177 216 -227 548 -560 603 -604 47
-38 51 -39 132 -40 l84 -1 -3 26 c-2 14 -24 48 -52 76 -27 28 -123 129 -214
224 -214 225 -427 438 -483 484 -43 35 -46 36 -131 36 -87 0 -87 0 -84 -24z"/>
<path d="M5370 5763 c0 -10 12 -31 26 -48 78 -91 207 -228 349 -371 152 -153
194 -184 223 -165 5 3 8 49 8 103 l-1 96 -55 64 c-76 87 -90 103 -212 228
l-108 110 -115 0 c-103 0 -115 -2 -115 -17z"/>
<path d="M4683 5648 c-28 -14 -39 -65 -34 -170 1 -14 37 -60 93 -118 166 -173
503 -529 645 -679 70 -74 70 -75 101 -62 31 13 38 30 43 96 6 88 2 97 -84 187
-93 98 -334 352 -387 408 -231 245 -335 350 -344 349 -6 0 -21 -5 -33 -11z"/>
<path d="M4680 5158 c-21 -17 -24 -29 -27 -101 l-4 -82 83 -86 c46 -47 155
-162 243 -254 193 -203 427 -440 473 -478 42 -34 82 -36 83 -4 3 144 0 179
-18 200 -17 21 -108 116 -244 258 -35 37 -130 136 -210 220 -258 271 -330 343
-342 345 -7 1 -24 -7 -37 -18z"/>
<path d="M4650 4570 l0 -80 58 -61 c31 -33 74 -80 96 -102 113 -122 395 -414
492 -511 140 -139 178 -171 207 -171 21 0 22 4 25 84 3 83 2 84 -30 116 -18
18 -80 82 -137 144 -205 220 -375 394 -534 547 -96 92 -124 114 -148 114 l-29
0 0 -80z"/>
<path d="M4677 4150 c-14 -12 -22 -33 -26 -71 -12 -110 -28 -87 283 -413 92
-96 211 -221 365 -384 85 -89 162 -162 171 -162 9 0 27 11 39 24 19 20 22 34
22 105 0 76 -2 84 -28 110 -15 16 -102 106 -193 201 -91 95 -198 207 -238 249
-40 42 -134 139 -208 217 -73 77 -141 141 -150 141 -9 0 -25 -8 -37 -17z"/>
<path d="M4692 3673 c-39 -19 -49 -60 -43 -170 1 -10 27 -45 57 -78 273 -293
571 -593 610 -612 29 -15 135 -8 178 11 l38 17 -23 26 c-28 31 -166 176 -259
272 -36 37 -146 152 -245 256 -99 103 -203 211 -231 240 l-51 53 -31 -15z"/>
<path d="M4649 3133 c-1 -16 -2 -50 -3 -76 -2 -36 3 -56 18 -77 59 -81 82
-108 122 -140 42 -33 46 -35 134 -35 87 -1 90 0 90 21 0 23 -24 52 -165 202
-119 128 -194 167 -196 105z"/>
<path d="M7673 10571 c-16 -9 1 -41 47 -91 168 -180 319 -336 399 -414 132
-128 132 -129 170 -155 l33 -24 -7 32 c-22 103 -197 302 -485 553 -119 103
-135 114 -157 99z"/>
<path d="M7733 10172 c-24 -4 -25 -6 -25 -92 0 -22 1 -47 1 -55 1 -8 27 -42
59 -76 77 -84 230 -244 327 -345 44 -45 87 -91 96 -101 48 -56 342 -333 354
-334 8 -1 23 -2 32 -3 24 -1 22 26 -5 101 -19 52 -111 208 -131 223 -4 3 -14
14 -22 26 -67 98 -341 375 -569 574 -34 30 -70 62 -79 70 -9 8 -26 14 -38 12z"/>
<path d="M7760 9679 c-38 -14 -49 -40 -51 -119 l-2 -71 51 -52 c27 -29 70 -73
94 -98 84 -90 354 -372 428 -448 41 -43 112 -117 157 -164 46 -48 89 -87 97
-87 7 0 24 9 37 19 20 16 24 29 26 81 1 34 4 64 6 67 13 13 -19 59 -95 139
-46 47 -119 123 -163 169 -44 45 -152 158 -240 250 -88 92 -194 203 -235 246
-42 44 -78 79 -80 78 -3 0 -16 -5 -30 -10z"/>
<path d="M7752 9203 c-25 -10 -42 -62 -43 -133 l-1 -71 64 -67 c35 -37 107
-112 159 -166 152 -161 499 -508 559 -559 39 -33 62 -46 80 -45 25 3 25 5 26
93 1 97 -3 111 -44 153 -15 16 -83 89 -152 162 -69 73 -143 152 -165 175 -22
23 -74 78 -115 122 -337 359 -329 352 -368 336z"/>
<path d="M7709 8663 c-2 -72 1 -146 7 -152 3 -3 70 -73 147 -155 194 -205 560
-572 627 -629 39 -33 62 -46 80 -45 24 3 25 5 24 83 l0 80 -50 51 c-27 28
-107 114 -179 190 -213 226 -507 524 -558 565 -60 48 -97 52 -98 12z"/>
<path d="M7753 8192 c-36 -17 -42 -34 -44 -126 -2 -76 -17 -53 151 -226 41
-43 158 -164 260 -270 102 -106 235 -243 295 -305 l110 -114 31 13 c36 16 40
27 43 121 l2 71 -68 71 c-37 39 -126 133 -198 209 -71 75 -148 156 -170 179
-57 60 -316 334 -335 354 -34 36 -44 39 -77 23z"/>
<path d="M7724 7709 c-40 -11 -61 -58 -54 -121 5 -43 13 -56 120 -169 169
-181 639 -652 681 -683 42 -31 68 -33 99 -8 19 15 23 30 25 79 l2 61 -60 63
c-340 364 -728 759 -762 776 -12 6 -32 7 -51 2z"/>
<path d="M7549 7293 c-4 -91 -1 -103 32 -137 19 -19 81 -85 139 -147 165 -177
585 -601 629 -635 31 -24 50 -30 83 -30 l43 1 1 59 c0 60 0 60 -60 125 -332
355 -667 694 -754 764 -14 10 -39 17 -67 17 -36 0 -45 -4 -46 -17z"/>
<path d="M7386 7011 c-38 -25 -76 -70 -76 -90 0 -17 53 -74 383 -415 215 -222
355 -362 437 -435 39 -36 51 -41 93 -41 61 0 93 28 92 81 0 41 1 40 -289 343
-357 374 -566 576 -596 576 -8 0 -28 -9 -44 -19z"/>
<path d="M7165 6776 c-52 -30 -77 -51 -90 -75 -12 -25 -11 -29 16 -60 132
-152 761 -791 822 -836 32 -23 44 -27 83 -22 48 5 73 27 73 62 0 11 -35 57
-82 106 -45 47 -143 150 -217 229 -74 78 -164 173 -200 210 -36 37 -119 125
-185 195 -122 129 -196 206 -199 204 0 -1 -10 -6 -21 -13z"/>
<path d="M7669 5768 c-7 -111 31 -202 144 -343 68 -86 296 -320 403 -415 28
-25 83 -74 123 -110 98 -88 105 -91 96 -49 -11 49 -50 123 -112 212 -62 89
-64 92 -153 196 -142 167 -500 530 -501 509z"/>
<path d="M7758 5207 c-36 -14 -46 -40 -46 -122 l0 -70 95 -100 c321 -339 389
-409 489 -509 199 -198 256 -246 283 -239 15 4 20 15 23 54 1 27 0 61 -4 74
-3 14 -3 27 2 30 18 11 -6 59 -59 113 -99 103 -291 304 -466 487 -256 268
-283 295 -287 294 -1 -1 -15 -6 -30 -12z"/>
<path d="M7728 4693 c-11 -3 -18 -14 -19 -31 -3 -87 1 -134 13 -146 7 -7 78
-82 158 -167 181 -191 426 -443 504 -518 32 -31 74 -71 92 -88 19 -18 37 -33
40 -33 3 0 12 -7 20 -15 8 -8 25 -13 37 -11 21 3 22 8 22 86 0 79 -1 85 -30
115 -16 17 -102 108 -190 201 -234 247 -567 577 -601 595 -16 8 -37 14 -46 12z"/>
<path d="M7708 4183 c-2 -16 -2 -53 0 -84 3 -53 7 -58 69 -125 355 -376 648
-674 726 -738 28 -23 53 -35 69 -34 24 2 24 4 23 85 0 91 10 72 -100 188 -297
315 -646 667 -704 710 -47 34 -79 33 -83 -2z"/>
<path d="M7765 3720 c-38 -14 -49 -39 -52 -118 l-3 -77 73 -76 c39 -42 137
-145 217 -230 213 -225 500 -509 535 -527 55 -30 60 -25 65 64 3 45 3 93 0
107 -4 23 -87 114 -365 403 -27 28 -120 125 -207 215 -211 221 -212 222 -229
235 -8 7 -22 8 -34 4z"/>
<path d="M7708 3141 c-1 -32 -1 -70 2 -84 8 -42 717 -771 808 -832 64 -42 77
-33 78 50 0 39 -3 78 -8 87 -5 10 -34 44 -66 77 -31 32 -120 125 -197 206
-385 405 -544 555 -586 555 -26 0 -27 -2 -31 -59z"/>
<path d="M7709 2728 c-1 -2 -2 -50 -4 -107 l-2 -104 101 -105 c636 -660 716
-740 736 -735 41 11 54 40 55 121 1 85 7 75 -120 208 -22 23 -105 110 -185
195 -185 195 -474 485 -505 505 -21 13 -73 29 -76 22z"/>
<path d="M7629 2242 c-4 -122 -1 -134 39 -176 22 -23 79 -84 128 -135 165
-176 620 -631 631 -631 5 0 18 -9 27 -19 14 -16 22 -17 51 -8 37 11 47 32 50
108 1 44 -2 50 -63 115 -279 300 -675 702 -737 750 -24 18 -50 28 -80 29 l-45
3 -1 -36z"/>
<path d="M7463 1895 c-33 -23 -38 -63 -11 -89 13 -12 75 -78 138 -146 181
-195 656 -673 692 -696 21 -13 48 -20 73 -20 l40 1 1 58 c1 64 14 45 -159 231
-114 121 -395 411 -482 496 -176 173 -185 179 -230 180 -22 0 -50 -7 -62 -15z"/>
<path d="M7275 1651 c-79 -49 -100 -94 -63 -133 13 -13 88 -94 168 -179 235
-250 633 -645 665 -661 55 -26 111 -14 134 29 24 46 13 75 -52 144 -34 36
-111 119 -172 184 -153 165 -595 608 -622 623 -28 15 -22 15 -58 -7z"/>
<path d="M7073 1419 c-4 -4 -21 -10 -38 -13 -16 -2 -31 -5 -32 -6 -5 -4 -22
-7 -42 -9 -29 -2 -22 -78 10 -112 13 -14 89 -94 169 -179 172 -183 561 -575
608 -613 67 -54 202 -27 202 39 0 16 -16 41 -42 69 -24 23 -126 130 -228 235
-102 106 -232 242 -290 301 -58 60 -105 109 -104 109 0 0 -40 42 -90 93 -87
90 -106 103 -123 86z"/>
<path d="M6620 1188 c0 -40 6 -49 93 -139 50 -54 169 -177 262 -275 252 -263
412 -420 465 -457 17 -12 44 -17 87 -17 l63 0 -2 39 c-1 46 2 41 -191 244 -78
82 -159 168 -180 191 -63 67 -320 327 -378 382 -71 67 -86 74 -158 74 l-61 0
0 -42z"/>
<path d="M6325 1140 c-22 -5 -56 -11 -75 -15 -90 -15 -92 -36 -14 -120 298
-320 620 -647 695 -708 l46 -37 107 0 c103 0 106 1 106 23 0 14 -34 57 -97
122 -124 129 -280 291 -522 543 -107 111 -197 202 -200 201 -3 -1 -24 -5 -46
-9z"/>
<path d="M3737 1112 c-31 -6 -17 -46 34 -102 182 -196 596 -617 673 -685 73
-65 74 -65 162 -65 80 0 84 1 84 23 0 14 -27 50 -71 97 -381 402 -587 612
-674 686 -52 44 -56 46 -123 47 -38 1 -76 1 -85 -1z"/>
<path d="M4259 1110 c-50 -5 -56 -7 -54 -27 1 -13 4 -25 6 -27 2 -3 69 -73
149 -158 197 -208 544 -555 601 -601 l47 -38 103 3 c126 4 130 10 59 87 -318
344 -721 749 -752 756 -39 8 -100 10 -159 5z"/>
<path d="M4700 1112 c-18 -6 -10 -51 13 -74 12 -13 96 -102 187 -198 205 -216
491 -503 550 -552 25 -20 49 -34 54 -31 4 3 51 5 102 4 88 -2 94 -1 94 18 0
11 -12 33 -26 48 -186 203 -503 531 -656 679 -105 102 -110 104 -217 107 -50
1 -96 1 -101 -1z"/>
<path d="M5238 1112 c-20 -2 -28 -9 -28 -23 0 -21 19 -44 160 -192 321 -339
566 -584 620 -620 33 -23 185 -25 194 -2 5 14 -22 51 -89 121 -16 17 -91 95
-165 174 -177 188 -468 480 -512 513 -34 26 -104 38 -180 29z"/>
<path d="M5746 1110 c-59 -6 -67 -25 -28 -68 142 -158 674 -702 740 -755 32
-26 39 -27 143 -27 155 0 159 -12 -84 245 -224 236 -476 492 -542 550 -57 50
-65 53 -120 57 -33 1 -82 1 -109 -2z"/>
<path d="M3354 1089 c0 -23 4 -27 166 -199 237 -251 564 -573 621 -614 32 -22
69 -21 69 2 0 21 -14 37 -183 215 -72 77 -154 163 -180 191 -98 104 -287 294
-357 359 -58 54 -79 67 -104 67 -25 0 -32 -4 -32 -21z"/>
</g>
</svg>
