<?xml version="1.0" encoding="utf-8"?>
<!-- Generator: Adobe Illustrator 19.0.0, SVG Export Plug-In . SVG Version: 6.00 Build 0)  -->
<svg version="1.1" id="Layer_1" xmlns="http://www.w3.org/2000/svg" xmlns:xlink="http://www.w3.org/1999/xlink" x="0px" y="0px"
	 viewBox="0 0 150 295" style="enable-background:new 0 0 150 295;" xml:space="preserve">
<style type="text/css">
	.st0{fill:#FFFFFF;}
</style>
<g id="XMLID_2_">
	<path id="XMLID_3_" class="st0" d="M7.4,4.4h72.7c17.5,0,29.5,10.4,36.1,31.2v57.6c0,16.5-7.3,28.3-22,35.1c14.7,9,22,20.8,22,35.3
		V225c0,18-9.7,30.4-29.2,37.3H7.4c-1.3,0-2-0.7-2-2V6.4C5.7,5,6.3,4.4,7.4,4.4z M11.4,267.2h1.2c0.8,0,7.5,6.8,20.1,20.3v1h-1
		c-0.9,0-7.7-6.7-20.3-20.1V267.2z M20.5,267.2h4c0.9,0,7.7,6.8,20.3,20.3v1h-4c-0.9,0-7.7-6.7-20.3-20.1V267.2z M32.6,267.2h5
		c0.9,0,7.7,6.8,20.3,20.3v1h-5c-0.9,0-7.7-6.7-20.3-20.1V267.2z M39.8,37.5v74.7h31.2c7.4,0,11.1-4.4,11.1-13.1V50.6
		c0-8.7-4.4-13.1-13.1-13.1H39.8z M39.8,145.3v83.8h31.2c7.4,0,11.1-4.4,11.1-13.1v-54.4c0-10.9-4.4-16.3-13.1-16.3H39.8z
		 M45.7,42.7c0.9,0,7.6,6.7,20.1,20.1v3.2c0,1.3-0.7,2-2,2L43.7,45.7v-1C43.9,43.4,44.5,42.7,45.7,42.7z M45.7,53.8l20.1,21V80h-1
		c-0.8,0-7.8-7.1-21-21.2v-3C43.9,54.5,44.5,53.8,45.7,53.8z M43.7,66.9h1c0.9,0,7.9,7,21,21v4h-1c-0.8,0-7.8-7-21-21V66.9z
		 M43.7,79h1c0.9,0,7.9,7,21,21v3c0,1.3-0.7,2-2,2L43.7,84V79z M45.7,90.9l15.1,16.3l-2,1h-3c-0.9,0-5-4-12.1-12.1v-3
		C43.9,91.7,44.5,90.9,45.7,90.9z M43.7,104h1c0.9,0,1.9,1.1,3,3.2v1h-2c-1.3,0-2-0.7-2-2V104z M45.7,153.5l20.1,21.2v3
		c0,1.3-0.7,2-2,2l-20.1-21.2v-3C43.9,154.1,44.5,153.5,45.7,153.5z M45.7,165.6l20.1,21v5.2h-1c-0.8,0-7.8-7.1-21-21.2v-3
		C43.9,166.3,44.5,165.6,45.7,165.6z M43.7,178.7h1c0.9,0,7.9,7,21,21v4.2h-1c-0.8,0-7.8-7.1-21-21.2V178.7z M45.7,190.8l20.1,21
		v3.2c0,1.3-0.7,2-2,2l-20.1-21.2v-3C43.9,191.5,44.5,190.8,45.7,190.8z M45.7,202.9l20.1,21l-2,1h-3c-0.8,0-6.5-5.7-17.1-17.1v-3
		C43.9,203.6,44.5,202.9,45.7,202.9z M43.7,216h1c0.8,0,3.5,2.6,8.1,7.9v1h-4.2c-0.9,0-2.6-1.7-5-5V216z M44.7,267.2h5
		c0.9,0,7.7,6.8,20.3,20.3v1h-5.2c-0.8,0-7.5-6.7-20.1-20.1V267.2z M49.7,150.5h4.2c0.8,0,7.5,6.7,20.1,20.1v1h-4
		c-0.9,0-7.7-6.7-20.3-20.1V150.5z M53.9,42.7h4c0.8,0,7.1,6.4,19.1,19.1c0,1.3-0.7,2-2,2h-1c-0.9,0-7.6-6.7-20.1-20.1V42.7z
		 M57.8,267.2h4c0.9,0,7.7,6.8,20.3,20.3v1h-4.2c-0.8,0-7.5-6.7-20.1-20.1V267.2z M61.8,150.5H67c0.8,0,4.1,3.4,9.9,10.1v5h-1
		c-0.9,0-5.6-4.7-14.1-14.1V150.5z M65.8,42.7h5.2c0.9,0,2.9,2,6,6v5.2h-1c-0.9,0-4.3-3.4-10.1-10.1V42.7z M69.9,267.2h5
		c0.9,0,7.7,6.8,20.3,20.3v1H90c-0.8,0-7.5-6.7-20.1-20.1V267.2z M87,266.3l20.3,21.2v1h-5.2c-0.9,0-7.6-6.7-20.1-20.1v-1.2
		L87,266.3z M93,264.3h3.2c0.8,0,7.8,7.1,21,21.2v2h-3c-0.9,0-8-7.1-21.2-21.2V264.3z M105.1,259.3l21.2,22c0,1.5-0.7,2.2-2,2.2h-2
		c-0.9,0-8-7.1-21.2-21.2v-2C101.5,260.3,102.8,260,105.1,259.3z M107.3,125.3l22,23.2c0,1.3-0.7,2-2,2h-1c-0.9,0-8.3-7.4-22.2-22.2
		C104.1,127.3,105.1,126.3,107.3,125.3z M110.2,253.2c0.9,0,8.3,7.4,22,22.2v1c0,1.3-0.7,2-2,2h-1c-0.9,0-8.3-7.3-22-22
		C107.3,255.3,108.3,254.2,110.2,253.2z M113.2,119.1c0.9,0,8.3,7.4,22.2,22.2v1c0,1.3-0.7,2-2.2,2h-1c-0.8,0-8.1-7.3-22-22
		C110.2,121.3,111.2,120.2,113.2,119.1z M115.2,247.2h1c0.9,0,8,7.1,21.2,21.2v3h-2c-0.9,0-8.3-7.4-22.2-22.2
		C113.5,247.9,114.1,247.2,115.2,247.2z M116.2,112.2h2c0.9,0,8,7.1,21.2,21.2v3h-2c-0.9,0-8-7.1-21.2-21.2V112.2z M118.2,238.1h2
		c0.9,0,8,7.1,21.2,21.2v2c0,1.3-0.7,2-2,2c-0.9,0-8-7-21.2-21V238.1z M119.2,30.6h1c10.2,8.6,15.3,14.3,15.3,17.1
		c-0.9,0-6.4-5.4-16.3-16.1V30.6z M121.4,102.1c0.8,0,7.8,7.1,21,21.2v2c0,1.3-0.7,2-2,2c-0.9,0-8-7-21.2-21V104
		C119.4,102.7,120.2,102.1,121.4,102.1z M119.2,150.5c12.8,12.3,19.3,20.4,19.3,24.2c-12.8-11-19.3-18.4-19.3-22.2V150.5z
		 M120.2,40.7h1.2c14,12,21,20.5,21,25.2h-1c-0.9,0-8-7.1-21.2-21.2V40.7z M122.4,52.8l20.1,21v3c0,1.5-0.7,2.2-2,2.2l-20.3-21.2v-3
		C120.4,53.5,121.2,52.8,122.4,52.8z M122.4,64.7L142.4,86v5h-1c-0.9,0-8-7-21.2-21v-3C120.4,65.5,121.2,64.7,122.4,64.7z
		 M120.2,77.8h1.2c0.8,0,7.8,7.1,21,21.2v4h-1c-0.9,0-8-7-21.2-21V77.8z M122.4,89.9l20.1,21.2v3c0,1.3-0.7,2-2,2l-20.3-21v-3.2
		C120.4,90.6,121.2,89.9,122.4,89.9z M122.4,164.6l20.1,21v5.2h-1c-0.9,0-8-7.1-21.2-21.2v-3C120.4,165.3,121.2,164.6,122.4,164.6z
		 M120.2,177.7h1.2c0.8,0,7.8,7,21,21v4.2h-1c-0.9,0-8-7.1-21.2-21.2V177.7z M120.2,189.8h1.2c0.8,0,7.8,7,21,21v4.2h-1
		c-0.9,0-8-7.1-21.2-21.2V189.8z M122.4,201.9l20.1,21v5.2h-1c-0.9,0-8-7.1-21.2-21.2v-3C120.4,202.6,121.2,201.9,122.4,201.9z
		 M120.2,215h1.2c0.8,0,7.8,7,21,21v4h-1c-0.9,0-8-7-21.2-21V215z M120.2,226.9h1.2c0.8,0,7.8,7.1,21,21.2v3c0,1.3-0.7,2-2,2
		l-20.3-21V226.9z"/>
</g>
</svg>
