<?xml version="1.0" encoding="utf-8"?>
<!-- Generator: Adobe Illustrator 19.0.0, SVG Export Plug-In . SVG Version: 6.00 Build 0)  -->
<svg version="1.1" id="Layer_1" xmlns="http://www.w3.org/2000/svg" xmlns:xlink="http://www.w3.org/1999/xlink" x="0px" y="0px"
	 viewBox="-74 -47 150 295" style="enable-background:new -74 -47 150 295;" xml:space="preserve">
<style type="text/css">
	.st0{fill:#FFFFFF;}
	.st1{fill:#EB8242;}
</style>
<path class="st0" d="M-62.6,220.2h1.2c0.8,0,7.5,6.8,20.1,20.3v1h-1c-0.9,0-7.7-6.7-20.3-20.1C-62.6,221.4-62.6,220.2-62.6,220.2z"
	/>
<path class="st0" d="M-53.5,220.2h4c0.9,0,7.7,6.8,20.3,20.3v1h-4c-0.9,0-7.7-6.7-20.3-20.1V220.2z"/>
<path class="st0" d="M-41.4,220.2h5c0.9,0,7.7,6.8,20.3,20.3v1h-5c-0.9,0-7.7-6.7-20.3-20.1V220.2z"/>
<path class="st1" d="M42.2,46.2v-57.6C35.6-32.2,23.6-42.6,6.1-42.6h-72.7c-1.1,0-1.7,0.6-2,2v253.9c0,1.3,0.7,2,2,2H13
	c19.5-6.9,29.2-19.3,29.2-37.3v-61.4c0-14.5-7.3-26.3-22-35.3C34.9,74.5,42.2,62.7,42.2,46.2z M8.1,169c0,8.7-3.7,13.1-11.1,13.1
	h-31.2V98.3H-5c8.7,0,13.1,5.4,13.1,16.3V169z M8.1,52.1c0,8.7-3.7,13.1-11.1,13.1h-31.2V-9.5H-5C3.7-9.5,8.1-5.1,8.1,3.6V52.1z"/>
<path class="st0" d="M-29.3,220.2h5c0.9,0,7.7,6.8,20.3,20.3v1h-5.2c-0.8,0-7.5-6.7-20.1-20.1C-29.3,221.4-29.3,220.2-29.3,220.2z"
	/>
<path class="st0" d="M-16.2,220.2h4c0.9,0,7.7,6.8,20.3,20.3v1H3.9c-0.8,0-7.5-6.7-20.1-20.1C-16.2,221.4-16.2,220.2-16.2,220.2z"/>
<path class="st0" d="M-4.1,220.2h5c0.9,0,7.7,6.8,20.3,20.3v1H16c-0.8,0-7.5-6.7-20.1-20.1V220.2z"/>
<path class="st0" d="M13,219.3l20.3,21.2v1h-5.2c-0.9,0-7.6-6.7-20.1-20.1v-1.2L13,219.3z"/>
<path class="st0" d="M19,217.3h3.2c0.8,0,7.8,7.1,21,21.2v2h-3c-0.9,0-8-7.1-21.2-21.2V217.3z"/>
<path class="st0" d="M31.1,212.3l21.2,22c0,1.5-0.7,2.2-2,2.2h-2c-0.9,0-8-7.1-21.2-21.2v-2C27.5,213.3,28.8,213,31.1,212.3z"/>
<path class="st0" d="M33.3,78.3l22,23.2c0,1.3-0.7,2-2,2h-1c-0.9,0-8.3-7.4-22.2-22.2C30.1,80.3,31.1,79.3,33.3,78.3z"/>
<path class="st0" d="M36.2,206.2c0.9,0,8.3,7.4,22,22.2v1c0,1.3-0.7,2-2,2h-1c-0.9,0-8.3-7.3-22-22
	C33.3,208.3,34.3,207.2,36.2,206.2z"/>
<path class="st0" d="M39.2,72.1c0.9,0,8.3,7.4,22.2,22.2v1c0,1.3-0.7,2-2.2,2h-1c-0.8,0-8.1-7.3-22-22
	C36.2,74.3,37.2,73.2,39.2,72.1z"/>
<path class="st0" d="M41.2,200.2h1c0.9,0,8,7.1,21.2,21.2v3h-2c-0.9,0-8.3-7.4-22.2-22.2C39.5,200.9,40.1,200.2,41.2,200.2z"/>
<path class="st0" d="M42.2,65.2h2c0.9,0,8,7.1,21.2,21.2v3h-2c-0.9,0-8-7.1-21.2-21.2V65.2z"/>
<path class="st0" d="M44.2,191.1h2c0.9,0,8,7.1,21.2,21.2v2c0,1.3-0.7,2-2,2c-0.9,0-8-7-21.2-21V191.1z"/>
<path class="st0" d="M45.2-16.4h1C56.4-7.8,61.5-2.1,61.5,0.7c-0.9,0-6.4-5.4-16.3-16.1V-16.4z"/>
<path class="st0" d="M47.4,55.1c0.8,0,7.8,7.1,21,21.2v2c0,1.3-0.7,2-2,2c-0.9,0-8-7-21.2-21V57C45.4,55.7,46.2,55.1,47.4,55.1z"/>
<path class="st0" d="M45.2,103.5c12.8,12.3,19.3,20.4,19.3,24.2c-12.8-11-19.3-18.4-19.3-22.2V103.5z"/>
<path class="st0" d="M46.2-6.3h1.2c14,12,21,20.5,21,25.2h-1c-0.9,0-8-7.1-21.2-21.2V-6.3z"/>
<path class="st0" d="M48.4,5.8l20.1,21v3c0,1.5-0.7,2.2-2,2.2L46.2,10.8v-3C46.4,6.5,47.2,5.8,48.4,5.8z"/>
<path class="st0" d="M48.4,17.7l20,21.3v5h-1c-0.9,0-8-7-21.2-21v-3C46.4,18.5,47.2,17.7,48.4,17.7z"/>
<path class="st0" d="M46.2,30.8h1.2c0.8,0,7.8,7.1,21,21.2v4h-1c-0.9,0-8-7-21.2-21V30.8z"/>
<path class="st0" d="M48.4,42.9l20.1,21.2v3c0,1.3-0.7,2-2,2l-20.3-21v-3.2C46.4,43.6,47.2,42.9,48.4,42.9z"/>
<path class="st0" d="M48.4,117.6l20.1,21v5.2h-1c-0.9,0-8-7.1-21.2-21.2v-3C46.4,118.3,47.2,117.6,48.4,117.6z"/>
<path class="st0" d="M46.2,130.7h1.2c0.8,0,7.8,7,21,21v4.2h-1c-0.9,0-8-7.1-21.2-21.2V130.7z"/>
<path class="st0" d="M46.2,142.8h1.2c0.8,0,7.8,7,21,21v4.2h-1c-0.9,0-8-7.1-21.2-21.2V142.8z"/>
<path class="st0" d="M48.4,154.9l20.1,21v5.2h-1c-0.9,0-8-7.1-21.2-21.2v-3C46.4,155.6,47.2,154.9,48.4,154.9z"/>
<path class="st0" d="M46.2,168h1.2c0.8,0,7.8,7,21,21v4h-1c-0.9,0-8-7-21.2-21V168z"/>
<path class="st0" d="M46.2,179.9h1.2c0.8,0,7.8,7.1,21,21.2v3c0,1.3-0.7,2-2,2l-20.3-21v-5.2H46.2z"/>
<path class="st0" d="M-28.3-4.3c0.9,0,7.6,6.7,20.1,20.1V19c0,1.3-0.7,2-2,2L-30.3-1.3v-1C-30.1-3.6-29.5-4.3-28.3-4.3z"/>
<path class="st0" d="M-28.3,6.8l20.1,21V33h-1c-0.8,0-7.8-7.1-21-21.2v-3C-30.1,7.5-29.5,6.8-28.3,6.8z"/>
<path class="st0" d="M-30.3,19.9h1c0.9,0,7.9,7,21,21v4h-1c-0.8,0-7.8-7-21-21C-30.3,23.9-30.3,19.9-30.3,19.9z"/>
<path class="st0" d="M-30.3,32h1c0.9,0,7.9,7,21,21v3c0,1.3-0.7,2-2,2l-20-21V32z"/>
<path class="st0" d="M-28.3,43.9l15.1,16.3l-2,1h-3c-0.9,0-5-4-12.1-12.1v-3C-30.1,44.7-29.5,43.9-28.3,43.9z"/>
<path class="st0" d="M-30.3,57h1c0.9,0,1.9,1.1,3,3.2v1h-2c-1.3,0-2-0.7-2-2V57z"/>
<path class="st0" d="M-28.3,106.5l20.1,21.2v3c0,1.3-0.7,2-2,2l-20.1-21.2v-3C-30.1,107.1-29.5,106.5-28.3,106.5z"/>
<path class="st0" d="M-28.3,118.6l20.1,21v5.2h-1c-0.8,0-7.8-7.1-21-21.2v-3C-30.1,119.3-29.5,118.6-28.3,118.6z"/>
<path class="st0" d="M-30.3,131.7h1c0.9,0,7.9,7,21,21v4.2h-1c-0.8,0-7.8-7.1-21-21.2C-30.3,135.7-30.3,131.7-30.3,131.7z"/>
<path class="st0" d="M-28.3,143.8l20.1,21v3.2c0,1.3-0.7,2-2,2l-20.1-21.2v-3C-30.1,144.5-29.5,143.8-28.3,143.8z"/>
<path class="st0" d="M-28.3,155.9l20.1,21l-2,1h-3c-0.8,0-6.5-5.7-17.1-17.1v-3C-30.1,156.6-29.5,155.9-28.3,155.9z"/>
<path class="st0" d="M-30.3,169h1c0.8,0,3.5,2.6,8.1,7.9v1h-4.2c-0.9,0-2.6-1.7-5-5L-30.3,169L-30.3,169z"/>
<path class="st0" d="M-24.3,103.5h4.2c0.8,0,7.5,6.7,20.1,20.1v1h-4c-0.9,0-7.7-6.7-20.3-20.1V103.5z"/>
<path class="st0" d="M-20.1-4.3h4C-15.3-4.3-9,2.1,3,14.8c0,1.3-0.7,2-2,2H0c-0.9,0-7.6-6.7-20.1-20.1V-4.3z"/>
<path class="st0" d="M-12.2,103.5H-7c0.8,0,4.1,3.4,9.9,10.1v5h-1c-0.9,0-5.6-4.7-14.1-14.1C-12.2,104.5-12.2,103.5-12.2,103.5z"/>
<path class="st0" d="M-8.2-4.3H-3c0.9,0,2.9,2,6,6v5.2H2C1.1,6.9-2.3,3.5-8.1-3.2L-8.2-4.3L-8.2-4.3z"/>
</svg>
