<?xml version="1.0" encoding="utf-8"?>
<!-- Generator: Adobe Illustrator 19.0.0, SVG Export Plug-In . SVG Version: 6.00 Build 0)  -->
<svg version="1.1" id="Layer_1" xmlns="http://www.w3.org/2000/svg" xmlns:xlink="http://www.w3.org/1999/xlink" x="0px" y="0px"
	 viewBox="-450.5 -145.5 1000 593" style="enable-background:new -450.5 -145.5 1000 593;" xml:space="preserve">
<style type="text/css">
	.st0{fill:#EA8A8A;}
	.st1{fill:#FFFFFF;}
	.st2{fill:#FFFFFF;stroke:#000000;stroke-miterlimit:10;}
</style>
<rect x="-450.5" y="-145.5" class="st0" width="1000" height="593"/>
<g>
	<g>
		<g>
			<path class="st1" d="M240.4,343.6c0.6-0.3,0.8-1.4,0.8-2C240.1,341.3,240.9,342.7,240.4,343.6z M239.8,69.8
				c-0.3,0.6-0.3,1.1-1.1,1.1c-0.6-0.8-0.8-1.4-1.1-2.8C239,67.6,238.4,69.8,239.8,69.8z M238.7,348.9c-0.8,0.3-0.3,2-1.1,2
				c0.6-1.1,0.3-2.5,0.6-3.1C238.7,347.8,238.4,348.9,238.7,348.9z M234.2,376.2c0.6,2.5-0.6,5.3-0.6,7.3
				C233.1,381.2,234.2,379,234.2,376.2z M233.1,388.8c-0.6-2,0-7,0-2.5C233.1,387.1,233.1,387.9,233.1,388.8z M226.7,358.9
				c0.6,0.3,0.3,2.8,0,3.1C226.2,361.2,226.4,360.3,226.7,358.9z M226.2,370.9c-0.8,0.3-0.8-0.8-0.8-1.7
				C225.9,369.5,226.2,370.1,226.2,370.9z M225,351.9c-0.6,0,0.3-2.2-0.6-2.2C225,348.6,225.3,351.7,225,351.9z M218.1,307.3
				c-1.1-0.3-0.8-3.3-0.3-4.2C218.1,304.2,218.3,305.9,218.1,307.3z M248.5,127.3c-0.6-0.6-0.3-2.2-0.8-3.1
				C248.2,124.8,248.5,125.6,248.5,127.3z M244.3,96.3c-0.3,0-0.3,0-0.3,0.3c-0.6,5.3,0,13.4-0.6,17.6c0-8.4-0.3-16.7,1.4-23.2
				c0.8-3.6,2.8-6.7,0.6-9.8c0.8,0.3,1.7,1.7,2,2.8c0.6,3.3-2.8,7-2.8,10.6c0,2,0.8,2.5,0.6,4.5C244.6,98.3,244.6,97.2,244.3,96.3z
				 M238.7,347.2c-1.1,0-0.3-1.4-0.3-2.2c-0.3,0.6-1.1,0.8-0.8,2c-0.3-0.6-0.8-0.6-0.8-1.4c-1.4,3.3-0.6,4.5-1.1,7.3
				c-0.3,0-0.3-0.6-0.6-0.8c-0.6,2.5-0.8,6.7-0.3,9.8c-0.6,0-0.6-0.8-0.6-1.7c-0.8,0.3-0.3,3.3-1.1,1.7c0,2.5,0.6,2.2,0.3,4.5
				c-0.6-2.5-1.1-3.1-1.1-5.9c-0.3,0.3-0.3,1.1-0.6,1.7c-0.8-0.6,0.3-1.4,0-2.5c-1.1,4.2-1.1,8.9-1.1,13.7c-0.3-1.4-0.6-4.2-0.6-7
				c-0.6,1.7-0.6,4.5-0.8,6.7c-0.6-2.2-0.6,0.3-0.8,1.4c-0.3-11.2-0.6-14.8-1.1-26.8c0,2.2-0.3,3.3,0,5.3c0,0.6-0.8,1.1-0.8,0.3
				c-0.3,0.3,0.8,1.7-0.3,2c-1.7-1.4-0.8-6.4-1.7-8.9c-0.3,0.3-0.3,1.1-1.1,0.6c0,1.4,1.1-0.6,0.8,1.7c-2-1.7-0.8-4.7-1.1-6.7
				c0-1.7-0.6-3.6-0.3-6.1c-1.1,1.4-0.3,5.3-0.6,7.5c-0.3,0.6-0.3-0.3-0.3-0.8c-0.3-4.5-0.8-12.6-0.8-16.7c-1.1,1.7-0.3,3.9-0.3,7
				c-0.3,0-0.3-0.6-0.3-1.1c-0.6,4.5,0,13.7,0.8,19.5c0.3,1.7,0.8,3.1,1.1,4.5c0,1.4,0,4.7,1.1,6.1c-0.6,2.2,0,3.1,0.8,4.5
				c-0.6,0-0.6-0.6-0.8,0c-0.3,1.1,0.8,0.6,1.1,1.1c-0.3,0.6-1.1,2-0.3,2.8c-1.1-0.3,0,2.5,0.3,4.5c0.3-0.8,0.3-2.2,0.8-2.5
				c0.8,3.3,0,6.4,0,10c-0.6-2.5,0-6.7,0-9.5c-0.8,0.3-0.6,2.5-0.8,3.9c-5-15.1-8.1-42.1-7.5-61.9c1.4,0,2-4.2,2-7
				c0.6,0.8,0.8,0.3,1.4,1.1c-0.3,0.6,0.3,2,0,3.3c0.8-1.4,0-6.1,0.3-8.9c-0.6,0,0,1.1-0.3,1.7c-0.3,0.6-0.3-2.8-0.8-3.3
				c-0.6,2.5-0.3,3.6-0.3,5.6c-1.4-0.6,0.3-6.7-0.6-8.7c0.3-1.1,0.8,0.3,0.6,1.1c0.3-3.3,0.6-7,0.3-9.8c-0.3,1.1-0.3,4.2-0.3,7.3
				c-1.1-2,0.3-6.4-0.3-9.8c0.8-0.3,0.8,0.8,0.8,1.7c0.8-0.8,0-2.5-0.8-2.5c0.3-1.1,0.3-2.5-0.3-3.3c0.6,5.3-1.4,10.9-0.8,15.9
				c0.3,0,0.3-0.8,0.3-1.4c0.8,0.6,0,3.9,0.3,6.7c-0.3-0.3-0.3-0.6-0.6-1.1c-0.6,2.2,0.3,6.4-0.6,8.7c-0.3-13.1-0.8-26,0.6-39.1
				c1.1,2,0.3,6.1,1.1,8.7c0.3-1.1,0.3-5.6,0.3-7.3c1.1,2.2-0.3,7,0.6,10c0.6-15.9,0.6-29-0.3-46.3c-0.3,7,0.3,11.7,0.3,17.3
				c-0.3-0.3-0.6-0.6-0.6-1.1c-0.3,3.6,0.3,11.2-0.3,15.1c-0.6-0.3,0-2-0.3-2.8c-0.3,1.7-0.6,3.6-0.6,5.9
				c-1.4-8.9-1.4-18.1-2.8-27.9c0.3-0.3,0.3-1.1,1.1-0.6c0.3-21.5-1.1-44.1,0-62.8c0-0.8-0.6-0.6-0.8-1.4c1.4-10.9-1.4-24,0.3-36.3
				c0.6-3.6-0.8-7.8,0.6-10.9c-0.6-9.8-1.4-25.7,1.1-33.2v-2.8c0.6-0.8,1.1-1.1,1.4-2.2c-1.1-1.7,0-4.5,0.6-7.3
				c-0.3-0.6-0.6-0.6-1.1-0.6c0.8,1.4,0,0.8,0,3.1c-0.3,0.3-0.3-2.8-0.6-3.9c0.6,0.8,1.4-0.8,1.4,0.6c0.8-2,1.1-4.5,0.8-7.8
				c0.8,0.3,0,0.8,0.6,1.4c0.6-2,2-3.1,0.8-5.6c2,0.6,1.7-4.7,4.5-3.9c0.6,0,0-1.1,0.3-1.7c1.1,0.6,1.7-2.8,4.2-1.7
				c0,2.5,3.9,2.5,5.3,4.2c0.8-0.3-0.6-1.7,0.6-1.4c-0.3,2.2,1.4,3.9,2.2,5.6c0.3,2.2-0.8,2.8-1.1,4.2c1.1,3.3,2.5,5,2.2,8.9
				c0,0.8-0.3,1.7-0.3,2.5c0,0.8,0.6,1.1,0.6,1.1c0,0.3-0.6,1.1-0.6,1.7c0,1.1,1.1,2.2,1.1,2.8s-0.6,2.2-0.6,2.8
				c0,2.2,0.6,4.2,0.6,6.7c0.6,13.1,0,29.3,0.6,44.1c0.3,3.9,0.3,8.4,0.3,12.3c-0.3,16.2,0,32.1,0.6,48.6c0,0.6-0.3,3.9-0.3,6.4
				c0.8,31,2.2,72.3,1.1,106c-0.6,0.3-0.3,1.1-0.8,0.3c0,0.6,0.3,0.6,0.6,0.8c-0.3,1.7-0.6,1.7-0.8,3.3c-0.8,3.9-0.8,10-2.5,12.3
				c0.8-6.1,2.2-12.8,2.2-19.3c-1.7,3.9-1.1,10.9-3.6,13.7c0.8,2.2-0.8,3.3,0.3,4.5C237.6,340.2,239.3,345.2,238.7,347.2z
				 M229.2,370.1v-3.3C228.4,366.2,229.2,370.1,229.2,370.1z M226.7,350.8c0.6,1.1-0.3,1.7,0.6,2C227,351.9,227.8,350.8,226.7,350.8
				z M243.5,311.5c0-1.7-0.6-1.7,0-2.8C242.3,308.7,242.9,311.5,243.5,311.5z M243.5,315.4c-0.3-0.8,0.3-2.2-0.3-2.5
				C242.6,313.4,242.9,315.1,243.5,315.4z M221.1,87.4c0,1.7-1.1,5,0.6,5.3C221.7,90.8,221.7,88.5,221.1,87.4z M238.2,351.9
				c0.3,0.6-0.6,0.8,0,2.2c-0.8,0.3-0.3-1.4-0.6-2.2C237.9,352.2,238.2,352.5,238.2,351.9z M235.6,357.8c0.3,0.3,0,0.3-0.3,0.3
				c-0.3-0.6-0.3-2-0.3-3.1C236.2,355.3,234.8,357.2,235.6,357.8z M227,367.6c-0.8-0.3,0-2-0.6-2.5C227,364.2,227,366.7,227,367.6z
				 M223.4,73.2c0.3,0.8-1.1,3.9-1.7,3.6C222.2,75.4,223.1,74.6,223.4,73.2z"/>
		</g>
	</g>
	<g>
		<g>
			<path class="st1" d="M176.5-59.6c-0.6,0-0.8,0.3-0.8,0.6C176.8-59.1,175.9-59.4,176.5-59.6z M174.8,10.4c0.3,0,0.3-0.3,1.1-0.3
				c0.6,0.3,0.8,0.3,1.1,0.8C175.6,11,176.5,10.4,174.8,10.4z M178.2-60.8c0.8,0,0.3-0.6,1.1-0.6c-0.6,0.3-0.3,0.6-0.6,0.8
				C178.2-60.5,178.7-60.8,178.2-60.8z M183.2-67.7c-0.6-0.6,0.6-1.4,0.6-2C184.6-68.9,183.2-68.3,183.2-67.7z M184.6-70.8
				c0.6,0.6,0,1.7,0,0.6C184.6-70.5,184.6-70.8,184.6-70.8z M191-63c-0.6,0-0.3-0.8,0-0.8C191.8-63.5,191.3-63.3,191-63z
				 M191.8-66.1c0.8,0,0.8,0.3,0.8,0.6C192.1-65.8,191.8-65.8,191.8-66.1z M192.7-61.3c0.6,0-0.3,0.6,0.6,0.6
				C192.7-60.5,192.4-61,192.7-61.3z M199.9-49.6c1.1,0,0.8,0.8,0.3,1.1C199.9-48.8,199.6-49.3,199.9-49.6z M166.2-4.7
				c0.6,0.3,0.3,0.6,0.8,0.8C166.4-4.1,166.2-4.1,166.2-4.7z M170.3,3.4C170.6,3.4,170.6,3.4,170.3,3.4c0.8-1.4,0.3-3.3,1.1-4.5
				c0,2.2,0.3,4.2-1.7,5.9c-0.8,0.8-3.1,1.7-0.6,2.5c-0.8,0-1.7-0.6-2-0.8c-0.6-0.8,3.1-1.7,3.1-2.5c0-0.6-0.8-0.6-0.6-1.1
				C170.1,2.9,170.1,3.1,170.3,3.4z M178.2-60.5c1.1,0,0.3,0.3,0.3,0.6c0.3,0,1.1-0.3,0.8-0.6c0.3,0.3,0.8,0.3,0.8,0.3
				c1.4-0.8,0.6-1.1,1.1-2c0.3,0,0.3,0.3,0.6,0.3c0.6-0.6,0.8-1.7,0.3-2.5c0.6,0,0.6,0.3,0.6,0.6c0.8,0,0.3-0.8,1.1-0.3
				c0-0.6-0.6-0.6-0.3-1.1c0.6,0.6,1.1,0.8,1.1,1.4c0.3,0,0.3-0.3,0.6-0.3c0.8,0.3-0.3,0.3,0,0.6c1.1-1.1,1.1-2.2,1.4-3.3
				c0.3,0.3,0.6,1.1,0.6,1.7c0.6-0.3,0.6-1.1,0.8-1.7c0.6,0.6,0.6,0,0.8-0.3c0.3,2.8,0.6,3.9,0.8,7c0-0.6,0.3-0.8,0-1.4
				c0-0.3,0.8-0.3,0.8,0c0.3,0-0.8-0.6,0.3-0.6c1.7,0.3,0.8,1.7,1.7,2.2c0.3,0,0.3-0.3,1.1,0c0-0.3-1.1,0-0.8-0.6
				c2,0.6,0.8,1.1,1.1,1.7c0,0.6,0.6,0.8,0.3,1.7c1.1-0.3,0.3-1.4,0.6-2c0.3,0,0.3,0,0.3,0.3c0.3,1.1,0.8,3.3,0.8,4.2
				c1.1-0.3,0.3-1.1,0.3-1.7c0.3,0,0.3,0.3,0.3,0.3c0.6-1.1,0-3.6-0.8-5c-0.3-0.6-0.8-0.8-1.1-1.1c0-0.3,0-1.1-1.1-1.7
				c0.6-0.6,0-0.8-0.8-1.1c0.6,0,0.6,0.3,0.8,0c0.3-0.3-0.8-0.3-1.1-0.3c0.3,0,1.1-0.6,0.3-0.8c1.1,0,0-0.6-0.3-1.1
				c-0.3,0.3-0.3,0.6-0.8,0.6c-0.8-0.8,0-1.7,0-2.5c0.6,0.6,0,1.7,0,2.5c0.8,0,0.6-0.6,0.8-0.8c5.3,3.9,8.4,11.2,7.5,16.2
				c-1.4,0-2.2,1.1-2.2,1.7c-0.6-0.3-0.8,0-1.4-0.3c0.3,0-0.3-0.6,0-0.8c-0.8,0.3,0,1.7-0.3,2.2c0.6,0,0-0.3,0.3-0.3
				c0.3,0,0.3,0.8,0.8,0.8c0.6-0.6,0.3-0.8,0.3-1.4c1.4,0.3-0.3,1.7,0.6,2.2c-0.3,0.3-0.8,0-0.6-0.3c-0.3,0.8-0.6,1.7-0.3,2.5
				c0.3-0.3,0.3-1.1,0.3-2c1.1,0.6-0.3,1.7,0.3,2.5c-0.8,0-0.8-0.3-0.8-0.6c-0.8,0.3,0,0.6,0.8,0.6c-0.3,0.3-0.3,0.6,0.3,0.8
				c-0.6-1.4,1.7-2.8,1.1-3.9c-0.3,0-0.3,0.3-0.3,0.3c-0.8-0.3,0-1.1-0.3-1.7c0.3,0,0.3,0.3,0.6,0.3c0.6-0.6-0.3-1.7,0.6-2.2
				c0.3,3.3,0.6,6.7-0.8,10c-1.1-0.6-0.3-1.7-1.1-2.2c-0.3,0.3-0.3,1.4-0.3,2c-1.1-0.6,0.3-1.7-0.6-2.5c-0.8,3.9-0.8,7.3,0,11.7
				c0.3-1.7-0.3-3.1-0.3-4.5c0.3,0,0.6,0.3,0.6,0.3c0.3-0.8-0.3-2.8,0.3-3.9c0.6,0,0,0.6,0.3,0.8c0.3-0.3,0.6-0.8,0.6-1.4
				c1.4,2.2,1.4,4.7,2.8,7.3c-0.3,0-0.3,0.3-1.1,0c-0.6,5.6,0.8,11.2-0.6,15.9c0,0.3,0.6,0.3,0.8,0.3c-1.7,2.8,1.4,6.1-0.6,9.2
				c-0.6,0.8,0.8,2-0.6,2.8c0.6,2.5,1.4,6.7-1.4,8.4v0.8c-0.6,0.3-1.1,0.3-1.4,0.6c1.1,0.6,0,1.1-0.6,2c1.1,0,1.4,0,2,0
				c-0.8-0.3,0-0.3,0-0.8c0.3,0,0.3,0.8,0.6,1.1c-0.6-0.3-1.4,0.3-1.4,0c-0.8,0.6-1.1,1.1-0.8,2c-0.8,0,0-0.3-0.6-0.3
				c-0.6,0.6-2.2,0.8-0.8,1.4c-2-0.3-1.7,1.1-4.7,0.8c-0.6,0,0,0.3-0.3,0.3c-1.1-0.3-1.7,0.6-4.5,0.3c0-0.6-4.2-0.8-5.6-1.1
				c-0.8,0,0.6,0.6-0.6,0.3c0.3-0.6-1.4-1.1-2.2-1.4c-0.3-0.6,0.8-0.6,1.1-1.1c-1.1-0.8-2.5-1.4-2.2-2.2c0-0.3,0.3-0.3,0.3-0.6
				c0-0.3-0.6-0.3-0.6-0.3l0.6-0.3c0-0.3-1.1-0.6-1.1-0.8s0.6-0.6,0.6-0.6c0-0.6-0.6-1.1-0.6-1.7c-0.6-3.3,0.3-7.5-0.3-11.2
				c-0.3-1.1-0.3-2.2-0.3-3.1c0.6-4.2,0.3-8.1-0.3-12.3c0-0.3,0.3-1.1,0.3-1.7c-0.6-7.8-1.7-18.4-0.3-27.1c0.6,0,0.3-0.3,0.8,0
				c0-0.3-0.3-0.3-0.6-0.3c0.3-0.3,0.6-0.3,0.8-0.8c0.8-0.8,0.8-2.5,2.8-3.1c-0.8,1.7-2.5,3.1-2.5,4.7c1.7-0.8,1.4-2.8,3.9-3.3
				c-0.8-0.6,0.8-0.8-0.3-1.1C179.3-58.5,177.6-59.9,178.2-60.5z M188.5-66.1v0.8C189.3-64.9,188.5-66.1,188.5-66.1z M191-61
				c-0.6-0.3,0.3-0.3-0.6-0.6C190.7-61.3,189.9-61,191-61z M172.9-51.6c0,0.6,0.6,0.6,0,0.8C174.3-50.7,173.7-51.6,172.9-51.6z
				 M173.1-52.4c0.3,0.3-0.3,0.6,0.3,0.6C174-51.8,173.7-52.4,173.1-52.4z M194.9,6.5c0-0.6,1.1-1.1-0.6-1.4
				C194.3,5.7,194.3,6.2,194.9,6.5z M179-61.6c-0.3-0.3,0.6-0.3,0-0.6c0.8,0,0.3,0.3,0.6,0.6C179.3-61.6,179-61.9,179-61.6z
				 M181.5-63c-0.3,0,0,0,0.3,0c0.3,0.3,0.3,0.6,0.3,0.8C181-62.4,182.6-63,181.5-63z M191-65.2c0.8,0,0,0.6,0.6,0.6
				C190.7-64.4,191-64.9,191-65.2z M192.4,10.1c-0.3-0.3,1.1-0.8,1.7-0.8C193.5,9.6,192.7,9.6,192.4,10.1z"/>
		</g>
	</g>
	<g>
		<path class="st1" d="M52,133.5c1.4,2.5,2.2,5,2.2,7.8c0,2.8,0,5.3,0.6,8.4c0.3,0.6,0.3,1.1,0.6,1.7c0.3,0.6,0.3,0.8,0.3,1.7
			c0,0.3,0,0.6,0,1.1h-0.3c0,3.6,0.6,7,1.1,9.8c0.6,3.1,0.8,6.1,1.1,9.2c0.3,0.8,0.3,2,0.3,3.3c-0.6,0.8-0.6,2.2,0,4.5
			c0,0.6-0.3,1.1-0.3,1.1c-0.3,0-0.3,0.3-0.3,0.6c0,2,0.3,3.6,0.8,5.3c0.6,1.4,0.8,3.3,0.8,5.3c0,0.3-0.3,0.6-0.6,0.6
			c0,0.3-0.3,0.8,0,1.1c0,1.7,0,3.1,0.3,4.5c0.3,1.4,0.3,2.8,0.3,4.5c0.3,1.4,0.3,3.1,0.8,5c0.3,2,0.6,3.9,0.3,5.6
			c-0.3,0.8-0.3,1.7,0.3,2.5c0.6,1.1,0.6,2.5,0.8,4.5c0,0.6-0.3,1.1-0.6,1.7c-0.3,0.6-0.6,1.1-0.6,1.7c0,1.7,0.3,3.3,0.8,4.7
			c0.6,1.4,0.8,3.1,1.1,5c0,0.3-0.3,0.6-0.6,0.6c-0.3,0-0.3,0.3,0,1.1c0,0.6,0,1.1,0.3,1.7s0.3,0.8,0.6,1.1
			c0.3,3.6,0.6,7.3,0.8,10.9c0.3,3.6,0.6,7.8,0.6,12l-0.6,0.3l-0.6,1.7c0.3,1.7,0.6,2.8,1.1,3.6c0.6,0.8,0.6,2,0.3,3.3
			c0,0.6-0.3,1.4-0.6,2c-0.3,0.6-0.6,1.1-0.6,2c0,1.4,0.3,2.8,0.8,4.7c0.6,2,0.8,3.6,0.8,5.3c0,0.3,0,0.6-0.3,0.6s-0.3,0.3,0,1.1
			c0,0.8,0.3,1.7,0.3,2.2c0.3,0.6,0,0.8-0.3,1.1c0,0.6-0.3,1.1-0.8,1.4c-0.6,0.3-0.8,0.8-0.6,2c1.4,2.5,2.2,5,2.2,7.3
			c0,2.2,0,4.5,0.3,7c0,0.3,0.3,0.8,0.6,1.4c0.3,0.6,0.3,1.1,0.3,2c-0.3-0.3-0.6-0.3-0.8-0.3s-0.3,0.3-0.3,0.6
			c0,0.3,0.3,0.8,0.6,1.4c0.3,0.6,0.3,1.1,0.3,1.4l-1.4,0.3c0,0.8,0.6,2,1.4,3.3c0.8,1.1,0.8,2-0.3,2.2c1.1,3.3,1.7,5.3,2,6.1
			c0.3,0.8,1.1,2.2,2,4.7c-0.6,0.8-0.6,2,0,3.3c0.6,1.4,0.6,3.1,0.6,4.2c0,0.3-0.3,0.6-0.6,0.6c-0.3,0-0.3,0.6,0,1.4
			c0.6,2,0.8,4.5,0.6,8.4c-0.3,3.6-1.1,6.4-2.5,8.1c-0.8,0-1.4,0.6-1.4,1.4s-0.3,1.7-1.1,2c-0.6,0.3-1.1,0-1.7-0.8
			c-0.6-0.6-1.1-0.8-2-0.6c-3.1,0.3-6.4,0.6-10,0.8c-3.6,0.3-7.3,0-10.6-0.6c-2-4.5-3.3-8.7-3.9-13.1c-0.6-4.5-1.1-8.7-1.7-12.3
			c-0.6-3.6-1.1-7.5-1.7-11.2s-0.3-7,0.8-9.8c-0.8-2.5-1.4-4.7-2-7s-0.8-4.7-1.1-7.5c0-0.8,0-2.5-0.3-4.7c0-2.2,0-4.2-0.3-6.1
			c0-0.6,0-1.1-0.3-1.4c-0.3-0.3-0.3-0.6-0.6-0.8c0-0.6,0.3-1.1,0.6-1.1c0.3,0,0.6-0.3,0.3-0.6c-0.3-2.5-0.6-4.7-0.8-6.7
			c-0.3-2-0.6-3.6-0.8-5.3c0-0.6,0-1.1-0.3-1.7c-0.3-0.6-0.6-0.8-0.6-1.7c0-0.3,0.6-0.8,1.1-1.7c0.6-0.6,0.8-1.1,0.8-1.4
			c0-1.7-0.3-3.3-1.1-5c-0.6-1.7-0.8-3.3-0.8-4.7c-0.6-2.8-0.8-5.9-1.1-9.5c0-1.4,0.3-2.2,0.6-2.5c0.3-0.3,0.3-1.4,0-3.6
			c0-0.3-0.3-1.7-0.6-4.2c0-0.6,0-1.1,0.3-1.1c0,0,0.3-0.3,0.3-0.6c0.3-1.4,0.3-3.3,0-5.9c-0.3-2.5-0.6-5-0.8-7.5c0-2,0-3.3,0-4.5
			c0-0.6,0.3-1.4,0.6-2c0.3-0.6,0.6-1.1,0.6-2c0-1.4,0-2.8-0.3-4.2s-0.3-2.8,0.3-4.2c0-0.6,0.3-1.4,0.6-2.2c0.3-0.8,0.3-1.4,0.6-2.2
			c0-0.6-0.3-1.4-0.8-2.2c-0.6-0.8-0.8-2-0.8-3.3c0-0.3,0-0.6,0.6-1.1c0.6-0.6,0.8-1.1,0.8-1.7c0-1.7-0.3-3.1-0.3-4.5
			c-0.3-1.1-0.3-2.8-0.3-5c0-0.3,0.3-0.8,0.6-1.4c0.3-0.6,0.6-1.1,0.6-2c0-1.4-0.3-3.1-1.1-5c-0.8-2-0.3-3.1,1.4-2.8
			c-0.6-1.4-0.8-2.8-0.8-3.6c-0.3-0.8,0-2.2,0.3-3.6c0-0.3,0-1.1,0-2c-0.3-0.8-0.3-1.7-0.3-2.5c0.3,0,0.6,0,1.1,0
			c0.6,0,0.6,0,0.6-0.6c0.6-0.8,0.3-1.4-0.3-2.2c-0.6-0.6-1.1-1.4-1.1-2.5c0.6-0.8,0.8-1.4,1.1-1.7c0.3-0.3,0.6-0.8,0.8-1.7
			c0-0.3,0-0.8-0.3-1.4c-0.3-0.6-0.6-1.1-0.3-1.4c0.3-0.8,0.3-1.4,0.6-2.2c0-0.6,0.3-1.4,0.6-2.2c0.3-1.1,0.6-2,0.8-2.8
			c0.3-0.8,0.6-2,0.6-3.6c3.1,0,6.7-0.6,10.3-2.2C46.2,131.8,49.2,131.8,52,133.5z M39.2,343.3c-0.6-0.8-0.8-1.7-0.6-2.2
			c0-0.6,0-1.4,0.3-1.7c0-0.6,0-0.8,0-1.1c0-0.3-0.6-0.6-1.4-0.6c0,0.6,0,2,0,3.6C37.5,342.7,38.1,343.6,39.2,343.3z M37,327.1
			c-0.6-1.4-0.3-3.3,0.3-5.3c0.6-2,0.3-3.1-1.1-3.3c0.6,1.4,0.6,3.1-0.6,4.7C34.7,325.2,35,326.3,37,327.1z M45.6,199
			c0.3,2.2,0.8,3.6,1.7,3.9c0.8,0.3,1.4,1.4,1.7,3.1c-0.6,0.3-0.8,0.6-0.6,1.1s0.3,1.1,0.3,2c0,0.3-0.3,0.8-0.8,1.4
			c-0.3,0.6-0.8,1.4-1.1,2c0,0.6,0,1.4,0.3,2s0.3,1.7,0.6,2.8c0,0.3-0.3,0.8-0.6,1.4c-0.3,0.6-0.6,1.1-0.6,2c0,1.4,0,2.8,0.3,4.5
			s0.3,3.1,0.3,4.7l-0.6,0.6l-0.3,0.6c-0.3,0.8-0.3,2-0.3,3.6c0,1.7,0.8,2.2,2,2c-0.6-1.1-0.8-2-0.6-2.5c0.3-0.6,0.3-1.1,0.3-1.7
			c-0.3-1.1-0.3-2.2,0-3.3c0.6-0.8,0.6-2,0.3-2.8c-0.3-0.6-0.3-0.8,0-0.8s0.3-0.3,0.6-0.8c0.3-1.1,0.3-2,0-3.1c-0.3-0.8-0.3-2,0-3.3
			c0.6-2,1.1-3.9,1.7-6.1c0.3-2.2,0.6-3.9,0.3-4.7c-0.3-1.7-0.3-3.1,0-4.7s0.3-3.1,0.3-4.7c0-0.6,0-1.7,0.3-2.8c0-1.1,0-2.5,0-3.6
			c0.3-0.8,0.3-2-0.3-3.3c-0.6-1.4-0.3-2.8,0.3-3.6c-0.6-0.8-0.8-1.7-1.1-2.5c-0.3-0.8-0.6-1.4-1.1-1.7c-1.1,3.1-1.4,6.1-1.4,9.8
			C47.3,193.4,46.7,196.5,45.6,199z M52.3,31.6c0.6,1.4,1.1,3.1,1.1,4.5c0,1.7,0.3,3.3,0.3,5.3c0,0.3,0,0.6-0.3,0.6L53.1,43
			c0,0.8,0.3,2,0.6,2.8c0.3,0.8,0.6,2.2,0.6,3.9c0,1.7,0.3,3.3,0.3,4.7c0.3,1.7,0.3,3.3,0,5c0,0.8-0.3,2-1.4,2.8
			c-0.3,0.8-0.3,1.7,0,2.5s-0.3,1.4-1.4,1.4c0.8,1.1,1.1,2,0.8,2.5c-0.3,0.6-0.6,1.1-0.6,2c0,0.3,0.3,0.8,0.6,1.4
			c0.3,0.6,0.3,1.1,0.3,1.4h-0.3h-0.3c0,0.3,0,0.8,0.3,1.4s0.6,1.1,0.6,2L52,77.1c0,0.3,0.3,0.8,0.6,1.4c0.3,0.6,0.3,1.1,0.3,1.4
			c-0.6,0.8-0.6,1.7,0.3,2.8c0.6,1.1,0.6,2.2,0.3,2.8c-0.3,1.1-0.3,3.1,0,5.9c0,1.7,0.3,3.1,0.6,4.5c0.3,1.4,0.6,2.8,0.6,4.5
			c-4.5,1.7-8.4,0.8-12-2.8c-1.7,0.3-3.3,0.3-4.7,0.6c-1.7,0.3-3.1,0-4.5-0.6c-0.8-0.8-1.7-1.7-2.5-3.1C30,93,29.2,92.7,28,93
			c-0.6-3.3-1.4-7-2.8-10.3c-1.4-3.3-2-6.7-2-10c0-0.3,0.3-0.6,0.6-0.6c0.3,0,0.3-0.3,0-1.1l-0.3-0.8c0-0.3,0.6-0.8,0.8-1.7
			c-0.3-1.4-0.3-2.8-0.3-4.5c0-1.7-0.3-3.3-0.8-5.3c-0.3-0.6-0.3-1.4-0.6-2.8c-0.3-1.1-0.3-2.2,0-3.1c0-0.3,0.6-0.6,1.1-0.8
			c0.6-0.3,0.8-0.3,0.6-0.8c0-1.7-0.3-3.1-0.8-4.2c-0.6-1.1-0.6-2.2-0.3-2.8c0.3-1.1,0.6-2,0.8-2.8c0.3-0.8,0.6-1.4,0.8-2.2
			c0.3-0.8,0.3-1.4,0.3-1.7c0-0.6-0.3-1.1-0.3-1.7c0-0.6,0.3-1.7,0.8-3.1s0.8-2.5,0.8-3.9c2.5-1.1,5-1.7,7.3-2
			c2.2-0.3,4.2,0.6,5.9,2.5c2.5-1.4,4.7-1.7,6.4-0.8C49,29.7,50.6,30.5,52.3,31.6z"/>
	</g>
	<g>
		<path class="st2" d="M-88.3,140.4"/>
	</g>
	<g>
		<g>
			<path class="st1" d="M-123.2,343.6c0.6-0.3,0.8-1.4,0.8-2C-123.5,341.3-122.6,342.7-123.2,343.6z M-124,69.8
				c0,0.6-0.3,1.1-0.8,1.1c-0.6-0.8-0.8-1.4-1.1-2.8C-124.6,67.6-125.2,69.8-124,69.8z M-124.9,348.9c-0.8,0.3-0.3,2-1.1,2
				c0.6-1.1,0.3-2.5,0.6-3.1C-124.9,347.8-125.2,348.9-124.9,348.9z M-129.3,376.2c0.6,2.5-0.6,5.3-0.6,7.3
				C-130.5,381.2-129.3,379-129.3,376.2z M-130.5,388.8c-0.6-2,0-7,0-2.5C-130.5,387.1-130.5,387.9-130.5,388.8z M-136.9,358.9
				c0.6,0.3,0.3,2.8,0,3.1C-137.4,361.2-137.2,360.3-136.9,358.9z M-137.4,370.9c-0.8,0.3-0.8-0.8-0.8-1.7
				C-137.7,369.5-137.4,370.1-137.4,370.9z M-138.8,351.9c-0.6,0,0.3-2.2-0.6-2.2C-138.8,348.6-138.3,351.7-138.8,351.9z
				 M-145.5,307.3c-1.1-0.3-0.8-3.3-0.3-4.2C-145.5,304.2-145.5,305.9-145.5,307.3z M-115.1,127.3c-0.8-0.6-0.6-2.2-0.8-3.1
				C-115.4,124.8-115.1,125.6-115.1,127.3z M-119.3,96.3c-0.3,0-0.3,0-0.3,0.3c-0.6,5.3,0,13.4-0.6,17.6c0-8.4-0.3-16.7,1.4-23.2
				c0.8-3.6,2.8-6.7,0.6-9.8c0.8,0.3,1.7,1.7,2,2.8c0.6,3.3-2.8,7-2.8,10.6c0,2,0.8,2.5,0.6,4.5C-119,98.3-119,97.2-119.3,96.3z
				 M-125.2,347.2c-1.1,0-0.3-1.4-0.3-2.2c-0.3,0.6-1.1,0.8-0.8,2c-0.3-0.6-0.8-0.6-0.8-1.4c-1.4,3.3-0.6,4.5-1.1,7.3
				c-0.3,0-0.3-0.6-0.6-0.8c-0.6,2.5-0.8,6.7-0.3,9.8c-0.6,0-0.6-0.8-0.6-1.7c-0.8,0.3-0.3,3.3-1.1,1.7c0,2.5,0.6,2.2,0.3,4.5
				c-0.6-2.5-1.1-3.1-1.1-5.9c-0.3,0.3-0.3,1.1-0.6,1.7c-0.8-0.6,0.3-1.4,0-2.5c-1.1,4.2-1.1,8.9-1.1,13.7c-0.3-1.4-0.6-4.2-0.6-7
				c-0.6,1.7-0.6,4.5-0.8,6.7c-0.6-2.2-0.6,0.3-0.8,1.4c-0.3-11.2-0.6-14.8-1.1-26.8c0,2.2-0.3,3.3,0,5.3c0,0.6-0.8,1.1-0.8,0.3
				c-0.3,0.3,0.8,1.7-0.3,2c-1.7-1.4-0.8-6.4-1.7-8.9c-0.3,0.3-0.3,1.1-1.1,0.6c0,1.4,1.1-0.6,0.8,1.7c-2-1.7-0.8-4.7-1.1-6.7
				c0-1.7-0.6-3.6-0.3-6.1c-1.1,1.4-0.3,5.3-0.6,7.5c-0.3,0.6-0.3-0.3-0.3-0.8c-0.3-4.5-0.8-12.6-0.8-16.7c-1.1,1.7-0.3,3.9-0.3,7
				c-0.3,0-0.3-0.6-0.3-1.1c-0.6,4.5,0,13.7,0.8,19.5c0.3,1.7,0.8,3.1,1.1,4.5c0,1.4,0,4.7,1.1,6.1c-0.6,2.2,0,3.1,0.8,4.5
				c-0.6,0-0.6-0.6-0.8,0c-0.3,1.1,0.8,0.6,1.1,1.1c-0.3,0.6-1.1,2-0.3,2.8c-1.1-0.3,0,2.5,0.3,4.5c0.3-0.8,0.3-2.2,0.8-2.5
				c0.8,3.3,0,6.4,0,10c-0.6-2.5,0-6.7,0-9.5c-0.8,0.3-0.6,2.5-0.8,3.9c-5-15.1-8.1-42.1-7.5-61.9c1.4,0,2-4.2,2-7
				c0.6,0.8,0.8,0.3,1.4,1.1c-0.3,0.6,0.3,2,0,3.3c0.8-1.4,0-6.1,0.3-8.9c-0.6,0,0,1.1-0.3,1.7c-0.3,0.6-0.3-2.8-0.8-3.3
				c-0.6,2.5-0.3,3.6-0.3,5.6c-1.4-0.6,0.3-6.7-0.6-8.7c0.3-1.1,0.8,0.3,0.6,1.1c0.3-3.3,0.6-7,0.3-9.8c-0.3,1.1-0.3,4.2-0.3,7.3
				c-1.1-2,0.3-6.4-0.3-9.8c0.8-0.3,0.8,0.8,0.8,1.7c0.8-0.8,0-2.5-0.8-2.5c0.3-1.1,0.3-2.5-0.3-3.3c0.6,5.3-1.4,10.9-0.8,15.9
				c0.3,0,0.3-0.8,0.3-1.4c0.8,0.6,0,3.9,0.3,6.7c-0.3-0.3-0.3-0.6-0.6-1.1c-0.6,2.2,0.3,6.4-0.6,8.7c-0.3-13.1-0.8-26,0.6-39.1
				c1.1,2,0.3,6.1,1.1,8.7c0.3-1.1,0.3-5.6,0.3-7.3c1.1,2.2-0.3,7,0.6,10c0.6-15.9,0.6-29-0.3-46.3c-0.3,7,0.3,11.7,0.3,17.3
				c-0.3-0.3-0.6-0.6-0.6-1.1c-0.3,3.6,0.3,11.2-0.3,15.1c-0.6-0.3,0-2-0.3-2.8c-0.3,1.7-0.6,3.6-0.6,5.9
				c-1.4-8.9-1.4-18.1-2.8-27.9c0.3-0.3,0.3-1.1,1.1-0.6c0.3-21.5-1.1-44.1,0-62.8c0-0.8-0.6-0.6-0.8-1.4c1.4-10.9-1.4-24,0.3-36.3
				c0.6-3.6-0.8-7.8,0.6-10.9c-0.6-9.8-1.4-25.7,1.1-33.2v-2.8c0.6-0.8,1.1-1.1,1.4-2.2c-1.1-1.7,0-4.5,0.6-7.3
				c-0.3-0.6-0.6-0.6-1.1-0.6c0.8,1.4,0,0.8,0,3.1c-0.3,0.3-0.3-2.8-0.6-3.9c0.6,0.8,1.4-0.8,1.4,0.6c0.8-2,1.1-4.5,0.8-7.8
				c0.8,0.3,0,0.8,0.6,1.4c0.6-2,2-3.1,0.8-5.6c2,0.6,1.7-4.7,4.5-3.9c0.6,0,0-1.1,0.3-1.7c1.1,0.6,1.7-2.8,4.2-1.7
				c0,2.5,3.9,2.5,5.3,4.2c0.8-0.3-0.6-1.7,0.6-1.4c-0.3,2.2,1.4,3.9,2.2,5.6c0.3,2.2-0.8,2.8-1.1,4.2c1.1,3.3,2.5,5,2.2,8.9
				c0,0.8-0.3,1.7-0.3,2.5c0,0.8,0.6,1.1,0.6,1.1c0,0.3-0.6,1.1-0.6,1.7c0,1.1,1.1,2.2,1.1,2.8s-0.6,2.2-0.6,2.8
				c0,2.2,0.6,4.2,0.6,6.7c0.6,13.1,0,29.3,0.6,44.1c0.3,3.9,0.3,8.4,0.3,12.3c-0.3,16.2,0,32.1,0.6,48.6c0,0.6-0.3,3.9-0.3,6.4
				c0.8,31,2.2,72.3,1.1,106c-0.6,0.3-0.3,1.1-0.8,0.3c0,0.6,0.3,0.6,0.6,0.8c-0.3,1.7-0.6,1.7-0.8,3.3c-0.8,3.9-0.8,10-2.5,12.3
				c0.8-6.1,2.2-12.8,2.2-19.3c-1.7,3.9-1.1,10.9-3.6,13.7c0.8,2.2-0.8,3.3,0.3,4.5C-126,340.2-124.3,345.2-125.2,347.2z
				 M-134.4,370.1v-3.3C-135.2,366.2-134.4,370.1-134.4,370.1z M-136.9,350.8c0.6,1.1-0.3,1.7,0.6,2
				C-136.6,351.9-135.8,350.8-136.9,350.8z M-120.1,311.5c0-1.7-0.6-1.7,0-2.8C-121.3,308.7-120.7,311.5-120.1,311.5z M-120.1,315.4
				c-0.3-0.8,0.3-2.2-0.3-2.5C-121,313.4-120.7,315.1-120.1,315.4z M-142.5,87.4c0,1.7-1.1,5,0.6,5.3
				C-141.9,90.8-141.9,88.5-142.5,87.4z M-125.4,351.9c0.3,0.6-0.6,0.8,0,2.2c-0.8,0.3-0.3-1.4-0.6-2.2
				C-125.7,352.2-125.4,352.5-125.4,351.9z M-127.9,357.8C-127.7,358.1-127.9,358.1-127.9,357.8c-0.6-0.3-0.6-1.7-0.6-2.8
				C-127.4,355.3-128.8,357.2-127.9,357.8z M-136.6,367.6c-0.8-0.3,0-2-0.6-2.5C-136.6,364.2-136.6,366.7-136.6,367.6z M-140.2,73.2
				c0.3,0.8-1.1,3.9-1.7,3.6C-141.6,75.4-140.5,74.6-140.2,73.2z"/>
		</g>
	</g>
	<g>
		<g>
			<path class="st1" d="M-162,76.3c0.6,0.6,1.4-0.3,2.2-0.6C-160.3,74.9-160.6,76.5-162,76.3z M37.2-78.9c-0.6,0-1.1,0.6-1.4,0
				c0.3-0.8,0.6-1.4,1.4-2.5C38.4-80.8,36.4-80,37.2-78.9z M-166.7,78.5c-0.6-0.6-1.7,0.8-2.2,0.3c1.1-0.6,1.7-1.4,2.5-1.4
				C-165.9,77.4-167,77.9-166.7,78.5z M-189.3,90.8c-1.1,2-4.5,2.8-5.3,4.2C-193.5,93-191,92.4-189.3,90.8z M-198.8,97.5
				c1.1-1.7,4.7-4.2,1.7-1.4C-197.7,96.3-198.3,97.2-198.8,97.5z M-181.5,74.9c0,0.6-1.7,2-2.2,2C-183.5,76-182.6,75.7-181.5,74.9z
				 M-190.7,81.8c-0.6-0.6,0-1.1,0.6-1.4C-189.6,80.4-189.9,81-190.7,81.8z M-177.6,69.3c-0.3-0.6,1.7-1.1,1.1-1.7
				C-175.4,67.3-177.3,69.6-177.6,69.3z M-150,38c-0.6-1.1,2-2.5,2.8-2.5C-148,36.3-148.9,37.2-150,38z M0.1-40.4
				c0-0.8,1.4-1.7,2-2.2C1.5-41.8,1-40.9,0.1-40.4z M20.5-60.8C20.5-61,20.2-61,20.5-60.8c-4.5,2.5-10.3,7.3-13.4,8.9
				c6.4-4.7,12.3-9.5,17.9-11.7c3.3-1.4,6.7-1.4,7.5-5c0,0.8-0.3,2.2-1.1,3.3c-2.2,2.2-7,1.4-9.5,3.3c-1.7,1.1-1.4,2.2-3.1,2.8
				C18.8-59.4,19.9-59.9,20.5-60.8z M-165.3,77.1c-0.6-0.8,1.1-0.8,1.1-1.4c-0.6,0-1.1,0-2,0.6c0.3-0.6,0-0.8,0.6-1.4
				c-3.3,0.8-3.6,2.2-6.1,3.3c0-0.3,0.6-0.6,0.3-0.8c-2.2,1.1-5.6,3.3-7.3,5.3c-0.3-0.6,0.3-0.8,0.8-1.4c-0.6-0.6-2.5,2-2,0
				c-1.7,1.7-1.1,1.7-3.1,2.8c1.4-2,1.4-2.8,3.6-4.2c-0.6-0.3-1.1,0.6-1.7,0.8c0-0.8,1.4-0.8,1.7-1.4c-3.6,1.7-7,4.2-10.3,7
				c0.8-0.8,2.8-3.1,4.7-4.5c-1.7,0.6-3.3,2.5-5.3,3.3c1.1-1.7-0.6-0.3-1.7,0.3c7.8-6.7,10-8.9,18.4-16.5c-1.7,1.1-2.8,1.7-3.9,3.1
				c-0.3,0.3-1.4,0.3-0.6-0.6c-0.3-0.3-0.6,1.4-1.7,1.1c0-2.2,4.2-4.5,5.3-6.7c-0.3-0.3-0.8,0.3-1.1-0.3c-1.1,0.8,1.1,0.3-0.8,1.4
				c0-2.5,2.5-3.3,4.2-4.7c1.4-1.1,2.5-2.5,4.2-3.9c-1.7,0-3.9,2.8-5.9,4.2c-0.6,0.3,0-0.3,0.3-0.6c3.1-2.8,8.7-7.8,11.7-10.6
				c-2,0-2.8,2-5,3.6c0-0.3,0.3-0.6,0.6-0.8c-3.3,2.2-10,7.8-13.7,12.3c-0.8,1.1-1.7,2.5-2.5,3.3c-1.1,0.8-3.3,2.8-3.6,4.7
				c-2,0.8-2,1.7-2.8,3.1c-0.3-0.3,0-0.8-0.3-0.6c-1.1,0.6,0,0.8,0,1.4c-0.6,0.3-2.2,0.6-2,1.4c-0.6-1.1-1.7,1.4-3.1,2.8
				c0.8,0,2-1.1,2.5-0.6c-2,2.5-4.5,3.6-7,5.9c1.4-2.2,4.5-3.9,6.7-5.6c-0.8-0.6-2.2,1.1-3.1,2c7.5-12.8,24.8-31,39.9-42.4
				c0.6,1.1,4.2-0.8,6.1-2.5c-0.3,0.8,0.3,0.8,0.3,1.7c-0.6,0-1.1,1.4-2.5,2c1.4-0.3,4.2-3.6,6.7-5c-0.3-0.6-1.1,0.6-1.4,0.8
				c-0.6,0,2-2,2-2.5c-2.2,0.8-2.8,1.7-4.2,3.1c-0.6-1.4,5-3.6,6.1-5.6c1.1-0.6,0,0.8-0.6,0.8c2.5-1.7,5.6-3.6,7.3-5.3
				c-0.8,0.3-3.1,2-5.3,4.2c0.8-2,4.7-3.3,6.7-5.9c0.6,0.6,0,1.1-0.8,1.4c1.1,0,2-1.4,1.4-2c1.1-0.6,2-1.4,2.2-2.2
				c-3.6,3.3-8.7,5.3-12,8.7c0.3,0.3,0.8-0.3,1.1-0.6c0.3,1.1-2.8,2-4.5,3.9c0-0.3,0.3-0.6,0.6-0.8c-2,0.8-4.5,3.9-6.7,4.7
				c9.5-7.8,18.1-15.6,28.7-22.3c-0.8,1.7-4.2,3.9-5.6,5.9c1.1-0.6,4.5-3.1,5.3-4.2c-0.8,2.2-5,3.6-7,6.1
				c12-8.9,21.5-16.2,33.5-26.8c-5.3,4.5-8.4,7.5-12.3,10.9c0-0.3,0-0.6,0.6-0.8c-2.8,2-7.8,6.7-10.9,8.4c0-0.6,1.1-1.4,1.7-2
				c-1.4,0.8-2.8,1.7-4.7,3.1c5.6-6.4,12.3-11.7,18.4-18.1c0.3,0.3,1.1-0.6,1.1,0.3c15.9-12.3,31.5-26,45.8-35.7
				c0.6-0.3,0.3-0.8,0.6-1.4c8.9-5,17-14.5,26.8-20.4c3.1-2,5.3-5.3,8.4-5.6c6.7-5.9,18.1-15.6,25.4-17.6l2-1.7c0.8,0,1.4,0.3,2.5,0
				c0.8-1.7,3.3-2.5,5.9-3.6c0.3-0.3,0.3-0.8-0.3-1.1c0,1.4-0.6,0.3-2,1.7c-0.3,0,1.7-2,2.5-2.5c-0.3,0.8,1.4,0.6,0.6,1.7
				c2-0.3,3.9-1.4,6.4-3.3c0,0.8-0.8,0.3-0.8,1.1c1.7-0.6,3.6-0.3,4.7-2.2c0.8,2,4.2-1.4,5.6,1.4c0.3,0.6,1.1-0.6,1.4-0.8
				c0.6,1.4,3.1,0,3.6,2.2c-1.7,1.4,0.6,4.5,0,6.7c0.6,0.6,0.8-1.4,1.4-0.6c-2,1.1-2.2,3.1-2.8,4.7c-1.4,1.4-2.8,0.8-3.6,1.4
				c-2,2.8-2.2,4.5-5.3,7c-0.8,0.3-1.4,0.8-2,1.1c-0.6,0.3-0.6,0.8-0.6,0.8c-0.3,0.3-1.1,0.3-1.7,0.6c-0.8,0.6-0.8,2-1.4,2.5
				s-2,0.8-2.5,1.1c-1.7,1.1-3.1,2.5-4.5,3.9C2.9-49.6-9.1-41.5-19.4-32.6c-2.8,2.2-5.9,5-8.7,7C-40.1-16.7-51.5-7.7-62.9,2
				c-0.3,0.3-2.8,1.7-4.7,3.3c-22,18.1-51.1,43-75.9,61.9c-0.6-0.3-0.8,0.3-0.6-0.6c-0.6,0.3-0.3,0.6-0.3,0.8
				c-1.7,0.8-1.7,0.6-3.3,1.4c-3.3,1.7-7.8,5.3-10.3,5.3c5-2.8,10.9-5.9,15.1-9.5c-3.9,1.1-8.4,5.3-12,5.3c-1.1,2-3.1,1.1-3.1,2.8
				C-161.2,72.3-163.4,76.5-165.3,77.1z M-187.9,83.2l2.5-2C-185.4,80.4-187.9,83.2-187.9,83.2z M-175.9,70.1
				c-0.6,0.8-1.4,0.8-1.1,1.7C-176.2,71.2-175.1,70.9-175.9,70.1z M-136.9,60.1c1.1-0.8,0.8-1.1,2-1.7
				C-135.5,57.8-137.2,59.5-136.9,60.1z M-139.7,62.3c0.6-0.6,2-1.1,1.4-1.7C-138.8,60.6-139.9,61.7-139.7,62.3z M13.2-84.2
				c-1.4,0.8-4.5,2-3.6,3.3C11.3-82.2,12.7-83.4,13.2-84.2z M-169.2,79.6c-0.3,0.6-0.8,0-1.4,1.4c-0.8-0.6,0.8-0.8,1.1-1.7
				C-169.5,79.6-169.5,79.9-169.2,79.6z M-175.1,81C-175.1,81.3-175.4,81.6-175.1,81c0-0.6,0.8-1.1,1.7-2
				C-172.9,80.2-175.1,80.2-175.1,81z M-187.4,80.2c-0.3-0.8,1.4-1.4,1.4-2C-185.2,78.2-187.1,79.6-187.4,80.2z M25.2-90.6
				c-0.6,0.6-3.6,1.4-3.6,0.6C22.7-90.3,24.1-89.8,25.2-90.6z"/>
		</g>
	</g>
	<g>
		<g>
			<path class="st1" d="M75.2-59.6c-0.3,0.6,0.6,1.1,0.8,1.7C77.1-58.5,75.8-58.5,75.2-59.6z M267.5,87.1c-0.3-0.6-0.6-0.8,0-1.4
				c0.8,0,1.7,0.3,2.5,0.8C269.1,88,268,86,267.5,87.1z M72.4-63.5c0.3-0.8-1.1-1.4-0.8-2c0.6,0.8,1.7,1.4,2,2
				C73.2-63,72.7-63.8,72.4-63.5z M54.5-80.8c-2.2-0.6-3.6-3.3-5-3.9C51.5-84.2,52.6-82,54.5-80.8z M45.9-87.8c2,0.6,5.3,3.1,2,1.1
				C47.3-87,46.7-87.5,45.9-87.8z M71.8-78.6c-0.6,0.3-2.2-1.1-2.2-1.4C70.2-80,70.7-79.5,71.8-78.6z M62.9-85
				c0.3-0.8,0.8-0.3,1.7,0.3C64-84.5,63.5-84.8,62.9-85z M77.7-76.7c0.3-0.6,1.4,1.4,2,0.6C80.2-75,78-76.1,77.7-76.7z M114.3-59.9
				c0.6-1.1,3.1,1.1,3.1,2C116.5-58.2,115.4-58.8,114.3-59.9z M223.1,61.2c0.6-0.3,2,1.1,2.8,1.1C224.8,62,223.9,62,223.1,61.2z
				 M246.5,75.4C246.8,75.4,246.5,75.1,246.5,75.4c-3.3-3.6-9.2-8.1-11.4-10.6c5.6,5,11.4,9.2,14.5,14.2c2,2.8,2.5,5.9,6.4,5.9
				c-0.8,0.6-2.2,0.3-3.1,0c-2.5-1.4-2.8-5.9-5-8.4c-1.1-1.4-2.5-0.8-3.3-2.2C245.1,74.3,245.7,75.1,246.5,75.4z M73.8-62.7
				c0.3-0.8,1.4,0.6,1.7,0.8c-0.3-0.6,0-1.1-1.1-1.7c0.6,0,0.8-0.6,1.4,0.3c-1.7-2.8-2.8-2.5-4.7-4.5c0.3-0.3,0.6,0,0.8-0.3
				c-1.4-2-4.2-4.2-7-5c0.3-0.6,0.8,0,1.7,0.6c0-0.8-2.5-2-0.6-1.7c-1.7-1.4-2-0.6-3.3-2.2c2.2,0.8,2.8,0.6,4.7,2
				c0-0.6-0.8-0.8-0.8-1.1c0.8-0.6,1.1,0.8,2,1.1C66-77.2,62.4-79.7,59-82c1.1,0.3,3.3,1.7,5.6,3.1c-0.8-1.1-3.1-2.5-4.5-3.9
				c2,0.6,0-0.8-0.3-1.4c8.4,5.3,10.9,7,20.4,12.3c-1.7-1.1-2.2-2-3.9-2.5c-0.3,0-0.3-1.1,0-0.8c0-0.6-1.7-0.3-1.4-1.4
				c2-0.6,5.3,2.5,7.8,3.1c0-0.3-0.8-0.6,0-1.1c-1.1-0.6,0,1.1-1.7-0.3c2.2-0.8,3.9,1.7,5.3,2.2c1.4,0.6,2.8,1.4,4.7,2.8
				c-0.3-1.4-3.6-2.8-5.3-4.2c-0.3-0.6,0.3-0.3,0.6,0c3.3,2.2,9.8,5.6,12.8,7.8c-0.6-1.7-2.5-2-4.7-3.6c0.3-0.3,0.6,0,0.8,0.3
				c-3.1-2.5-9.8-7-14.8-9.2c-1.7-0.8-2.8-0.8-4.2-1.4c-1.1-0.6-3.3-2.5-5.3-2c-1.1-1.7-2-1.4-3.6-1.7c0-0.3,0.8-0.3,0.3-0.6
				c-0.8-0.6-0.8,0.6-1.4,0.3c-0.3-0.3-0.8-1.7-2-1.7c0.8-0.8-2-1.1-3.3-2.2c0.3,0.6,1.4,1.4,1.1,2.2c-3.1-0.8-4.7-3.1-7.5-4.7
				c2.2,0.8,5,3.1,7,4.5c0-0.8-1.4-1.7-2.5-2.5c14,3.1,36,14,49.9,24.8c-0.8,1.1,1.7,3.6,3.9,5.3c-0.8,0-0.6,0.6-1.4,0.6
				c-0.3-0.6-1.7-0.8-2.5-1.7c0.6,1.1,4.5,3.1,6.4,4.7c0.3-0.6-0.8-0.6-1.4-1.1c-0.3-0.6,2.2,1.4,3.1,1.1c-1.4-2-2.2-2.2-3.9-3.1
				c1.1-0.8,4.7,3.6,6.4,4.2c0.8,0.8-0.6,0.6-1.1,0c2.2,2,4.7,4.2,7,5c-0.8-0.6-2.8-2.2-5-3.9c2.2,0.3,4.5,3.3,7.3,4.7
				c-0.3,0.8-0.8,0.3-1.7-0.3c0,1.1,1.7,1.4,2.2,0.6c0.6,0.8,1.7,1.7,2.5,1.7c-3.9-2.5-7-6.4-11.2-8.9c0,0.3,0.6,0.6,1.1,0.8
				c-0.8,0.6-2.8-2-5-3.1c0.3,0,0.6,0,1.1,0c-1.1-1.7-5-3.1-6.1-5c9.5,6.4,19.3,12.6,28.2,20.6c-2-0.3-4.7-2.8-7-3.6
				c0.8,0.8,3.9,3.3,5,3.9c-2.5-0.3-4.7-3.9-7.5-4.7c11.2,8.9,20.6,15.6,33.5,24.3c-4.7-3.9-8.7-6.1-12.6-9.2c0.3-0.3,0.6-0.3,1.1,0
				c-2.5-2-8.1-5.6-10.6-8.1c0.6-0.3,1.7,1.1,2,1.4c-0.8-1.1-2.5-2.2-4.2-3.6c7.5,3.3,14,8.4,21.8,12.6c0,0.3,0.8,0.6,0,1.1
				c15.3,11.7,32.4,22.9,44.6,34c0.6,0.3,0.8-0.3,1.4,0.3c6.7,7,17.6,12.3,25.4,20.4c2.2,2.5,6.1,3.6,7,6.4c7.3,5,18.7,13.7,22,19.8
				l1.7,1.7c0.3,0.8-0.3,1.4,0.6,2.2c2,0.3,3.1,2.5,4.7,4.5c0.6,0,0.8,0,1.1-0.3c-1.4,0-0.6-0.6-2-1.7c0-0.3,2.2,1.1,2.8,1.7
				c-0.8,0-0.6,1.7-1.4,0.6c0.6,1.7,2.2,3.3,4.7,5c-0.6,0.6-0.6-0.3-1.4-0.6c0.8,1.4,0.6,3.3,3.1,4.2c-1.7,1.1,2,3.9-0.3,5.6
				c-0.3,0.3,0.8,0.8,0.8,1.1c-1.1,0.6,0.8,2.8-1.7,3.9c-1.7-1.4-4.2,1.4-6.4,1.7c-0.3,0.8,1.7,0.6,0.6,1.1c-1.4-1.7-3.6-1.4-5-1.4
				c-1.7-1.1-1.4-2.2-2.2-3.3c-3.1-1.1-5-0.8-7.5-3.3c-0.6-0.6-0.8-1.1-1.4-1.7c-0.6-0.3-1.1,0-1.1,0c-0.3-0.3-0.6-0.8-0.8-1.1
				c-0.8-0.6-2.2-0.3-2.8-0.6c-0.6-0.3-1.1-1.7-1.4-2c-1.4-1.4-3.1-2-5-3.3c-9.2-7-19.8-16.5-30.1-24c-2.8-2-5.9-4.5-8.4-6.4
				c-10.9-8.9-22-17.6-34-26c-0.3-0.3-2.5-2.2-4.5-3.6C141-8.6,111.2-28.9,87.2-46.5c0-0.6-0.8-0.6,0-0.8c-0.6-0.3-0.6,0-0.8,0.3
				c-0.8-1.1-0.8-1.1-2-2.5c-2.2-2.8-7-5.6-7.5-8.1c4.2,3.6,8.4,8.4,12.6,11.4c-2-3.3-7-6.1-7.8-9.8c-2-0.6-2-2.2-3.3-2.2
				C79.4-60.2,74.6-61.3,73.8-62.7z M62.1-82l2.5,1.7C65.1-80.6,61.8-82.2,62.1-82z M77.7-74.7c-1.1,0-0.8-1.1-2-0.6
				C76.6-74.7,77.1-73.9,77.7-74.7z M97-40.9c1.1,0.6,1.4,0.6,2,1.4C99.5-40.4,97.2-41.2,97-40.9z M93.9-42.9c0.6,0.3,1.4,1.4,2,1.1
				C95.8-42.6,94.7-43.2,93.9-42.9z M267.5,62.9c-1.1-0.8-2.8-3.6-3.9-2.8C265.2,61.2,266.3,62.9,267.5,62.9z M70.5-65.8
				c-0.6,0-0.6-0.6-1.7-1.1c0-0.8,1.1,0.3,2,0.6C70.5-66.1,70.2-66.1,70.5-65.8z M67.4-70.5c-0.3,0.3-0.3,0-0.3-0.3
				c0.6,0,1.7,0.8,2.2,1.4C69.1-68.6,68.5-71.1,67.4-70.5z M65.1-82.5c0.8-0.6,1.7,1.1,2.2,0.8C67.4-80.8,65.7-82.2,65.1-82.5z
				 M275.8,72.6c-0.6-0.3-2-3.1-1.4-3.3C275.3,70.7,275.3,71.8,275.8,72.6z"/>
		</g>
	</g>
</g>
</svg>
